<?xml version="1.0" encoding="utf-8"?>
<!-- Generator: Adobe Illustrator 19.0.0, SVG Export Plug-In . SVG Version: 6.00 Build 0)  -->
<svg version="1.1" id="Layer_1" xmlns="http://www.w3.org/2000/svg" xmlns:xlink="http://www.w3.org/1999/xlink" x="0px" y="0px"
	 viewBox="0 0 266.7 269.2" style="enable-background:new 0 0 266.7 269.2;" xml:space="preserve">
<style type="text/css">
	.st0{fill:#374D97;}
	.st1{fill:#FFFFFF;}
	.st2{fill:#C11926;}
</style>
<path class="st0" d="M266.7,180c0,0-12.9-19-28.6-32.7c-15.7-13.7-15.7-33.9-15.7-33.9c10.3-3.2,18.1-9.7,18.1-9.7s-9.9-2-14.1-15.7
	c-4.2-13.7-14.7-26.6-14.7-26.6c12.1-13.1,20-34.5,20-34.5c-33.1,16.3-61.9,16.7-61.9,16.7C169,28.2,173,13.3,173,13.3
	c-8.8,10.9-25.5,15.8-40.9,15.8c-8.9,0-17.4-1.6-23.8-4.7C90.7,15.9,83.9,0,83.9,0s-2.4,14.9-0.4,30c2,15.1-10.9,25.5-10.9,25.5
	c-2.5-1.5-6.9-1.7-9.1-1.7c-0.8,0-1.4,0-1.4,0c2.2,5.8,1.2,14.7-6.7,29.2c-7.9,14.5-3.8,29.4-12.1,35.5c-7.7,5.7-23.7,5.8-25.6,5.8
	c-0.1,0-0.2,0-0.2,0s11.9,12.5,24.2,16.8c12.3,4.3,17.7,21.5,2.4,33.6C28.8,186.9,0,188.5,0,188.5c12.5,8.5,29.4,12.3,29.4,12.3
	s14.9-2.5,28.6-2.5c5.7,0,11.3,0.4,15.4,1.7c13.9,4.2,21.8,9.7,21.8,9.7c-1.6,10.3-2.6,23-2.6,23c1.6,18.3,8.7,36.5,8.7,36.5
	c0.8-7.9,6.7-25.6,6.7-25.6c5.8-10.5,23.5-31,23.5-31c3.9,12.1,16.6,21,16.6,21s2.4-17.3,19.4-24.6c16.9-7.3,22.4-21,22.4-21
	c14.3,2,28.5,10.1,28.5,10.1c1.5-11.7-1.1-23.6-1.1-23.6c3.4-0.3,6.7-0.4,9.9-0.4C249.7,174,266.7,180,266.7,180z"/>
<path class="st1" d="M226.4,150c-0.9-0.7-1.9-1.4-2.8-2.1c-19.8-14.4-22.1-37.6-22.2-38.6l-0.8-9.2l7.4-3c-1.5-2.2-2.8-4.7-4-7.6
	c-3.9-9.6-12.8-18.9-12.9-19l-7.6-7.8l6.2-8c-15.9,5.5-27.1,6.7-27.9,6.8l-12,1.2l-1.7-12c-0.2-1.5-0.4-3-0.5-4.5
	c-6.5,2.6-13.7,4.3-21.4,5c-10.1,0.9-19.9-0.2-27.6-3.2c-1.6-0.6-3.2-1.3-4.6-2c0.9,13.8-6.9,25.4-12.2,30.5l-5,4.8
	c-0.9,5.3-2.8,11.1-5.6,17.6c-1.9,4.5-2.3,9.2-2.6,14.2c-0.5,7.5-1.1,16.8-8.8,23.5c-0.2,0.2-0.4,0.4-0.6,0.5
	c8.1,3.5,14.3,10.5,16.5,19.1c2.7,10.5-0.6,21.5-9.2,30.1c1.2-0.1,2.5-0.3,3.7-0.4c7.3-0.6,13.1-0.5,17.8,0.5
	c14.5,3,23.3,7.9,24.2,8.4l6.9,3.9l-0.5,7.9c-0.2,2.4-0.3,4.9-0.3,7.4c5-7.7,9.9-14.6,10.8-15.9l13.1-18.2l8.7,20.7
	c0.1,0.2,0.2,0.5,0.3,0.7c3.4-4.9,8.1-9.6,14.6-13.1c9.6-5.2,12.6-13.3,12.6-13.4l2.8-9.5l9.9,0.5c3.8,0.2,7.6,0.8,11.1,1.5
	l-4.1-13.5l14.1-2.4c3.3-0.6,6.6-1,10-1.3C223.5,150.2,225,150.1,226.4,150z"/>
<path class="st2" d="M148.4,80.9c8.6,6.4,13.1,6.8,18.1,10.6c5,3.8,4.1,8.1,4.1,8.1s3.8,3.7,6.7,4.1c0,0-2.4,2.3-4.1,3.4
	c-1.7,1.1,0.1,4.9,2.4,9.1c2.3,4.2-1.2,13.8-1.2,13.8s1.5,2.7,4,3.7c0,0-3.2,1.2-5.8,1.2c0,0,1.2,4.7-2.1,9.9
	c-3.3,5.2-7.3,8.7-7.1,13c0,0-5.2-0.4-9.6,2.3c-4.5,2.8-13.3,5.9-17.6,6.3c-4.4,0.3-8,3.1-8,3.1s-1.1-5.1-8.3-6.8
	c-7.2-1.7-15.4-4.5-22.4-11.4c-7-6.9-4.9-12-4.9-12s-2.9-6.3-3.2-12.2c-0.3-5.9-1.2-9.9-1.2-9.9s3.4-5.6,4.5-14.4
	c1.1-8.8,9.9-14.7,16-18.3c6.2-3.6,8.1-6.5,15.8-6.4C132.4,78.3,140.4,75,148.4,80.9z"/>
</svg>
