<?xml version="1.0" encoding="utf-8"?>
<!-- Generator: Adobe Illustrator 19.0.0, SVG Export Plug-In . SVG Version: 6.00 Build 0)  -->
<svg version="1.1" id="Layer_1" xmlns="http://www.w3.org/2000/svg" xmlns:xlink="http://www.w3.org/1999/xlink" x="0px" y="0px"
	 viewBox="0 0 224.5 251" style="enable-background:new 0 0 224.5 251;" xml:space="preserve">
<style type="text/css">
	.st0{fill:#374D97;}
	.st1{fill:#FFFFFF;}
	.st2{fill:#C11926;}
</style>
<path class="st0" d="M125.8,225c0,0,10.5,7.6,19.2,15.1c8.7,7.4,23.3,10.9,23.3,10.9s-10.5-15.4-12.5-26.7c0,0,24.7-2.5,37.4-11
	c0,0,4.8-5.8,6.8-12.8c2.1-7,6.5-9.6,6.5-9.6s10.4-3.2,17.9-9.6c0,0-1.3-12.8-7.8-18.4c-6.5-5.7-7.7-11.5-7.7-11.5s2.9-6.8,4-12.9
	c0,0-5.2-0.5-10.7-5.4c-5.5-5-7.8-6.1-7.8-6.1s6.2-1.8,10.6-10.4c4.5-8.6,10-10.9,10-10.9s-5.1-12.8-14.4-23.9
	c0,0-8.2-10.3-10.4-26.1c0,0-8.5-1.7-20.2,0.3c0,0-1.2-11.8-0.3-20.6c0,0-8.5,8-19,13.7c-10.5,5.6-16.7,11-16.7,11
	s-1.7-14.7-10.3-27.1C115,20.4,108.8,8.3,106.8,0c0,0-10,13.1-14.3,28.7c-4.4,15.5-14,30.2-14,30.2s-6.1-3.7-16.3-6.3
	c0,0,0.7,6.7-1.8,11.9c-2.4,5.2-1.8,11.9-1.8,11.9S47.4,71,30.3,73.9c0,0,5.1,5.6,6.7,13c0,0-3.5,14.4-0.5,21.9
	c0,0-15.5,1.4-23.9,5.2c0,0,5.8,6.5,7.3,10.9c1.5,4.3,3.6,13.3,3.6,13.3S13.1,138.5,0,146c0,0,17.9,2.5,23.9,6.4
	c6.1,3.9,8.5,7.1,8.5,7.1s-3.8,14.5,1,20.1c0,0-2.7,6.4-13.2,15.4c-10.6,9-11.8,24-11.8,24s9.9-4.1,24.3-6.3c14.4-2.3,25.2-3,25.2-3
	s5.5,7.6,13.2,13.9c7.7,6.2,16.6,5.7,16.6,5.7s6.8-6.9,7.7-13.8c0,0,3.6,7,6.8,16.2c3.2,9.2,14.6,18.7,14.6,18.7
	S118.6,238.4,125.8,225z"/>
<path class="st1" d="M129.9,198.2c0,0,7.8,4.4,14.4,8.7c6.6,4.4,16.9,5.5,16.9,5.5s-8.5-9.6-10.7-17.2c0,0,16.7-3.8,24.6-10.6
	c0,0,2.8-4.4,3.6-9.3c0.8-4.9,3.7-7.1,3.7-7.1s6.8-3.1,11.4-8c0,0-2-8.6-6.9-11.9c-4.9-3.3-6.2-7.2-6.2-7.2s1.4-4.9,1.7-9.2
	c0,0-3.6,0.1-7.7-2.8c-4.2-3-5.8-3.6-5.8-3.6s4.1-1.8,6.4-8c2.3-6.2,5.9-8.3,5.9-8.3s-4.5-8.3-11.8-15.2c0,0-6.5-6.3-9.3-17
	c0,0-6-0.5-13.8,1.9c0,0-1.8-7.9-1.9-14.1c0,0-5.1,6.2-11.9,10.9c-6.7,4.7-10.5,8.9-10.5,8.9s-2.4-9.9-9.3-17.7
	c-6.9-7.8-12.2-15.5-14.2-21c0,0-5.7,9.8-7.4,20.8c-1.7,11-7,21.8-7,21.8s-4.5-2-11.7-2.9c0,0,1,4.5-0.2,8.3
	c-1.2,3.8-0.2,8.3-0.2,8.3s-8.1-2.7-19.6,0.7c0,0,4,3.4,5.7,8.3c0,0-1.2,10.2,1.5,15c0,0-10.5,2.2-15.9,5.6c0,0,4.5,4,5.9,6.8
	c1.4,2.8,3.6,8.8,3.6,8.8s-7.1,1.1-15.4,7.3c0,0,12.4,0.2,16.9,2.4c4.5,2.1,6.4,4.1,6.4,4.1s-1.4,10.3,2.4,13.7
	c0,0-1.3,4.6-7.8,11.6c-6.5,7-6.1,17.4-6.1,17.4s6.4-3.6,16.1-6.4c9.7-2.8,17-4.1,17-4.1s4.4,4.8,10.2,8.4
	c5.7,3.6,11.8,2.5,11.8,2.5s4.1-5.3,4.1-10c0,0,3.1,4.5,6,10.5c2.9,6,11.5,11.6,11.5,11.6S126.1,207.9,129.9,198.2z"/>
<path class="st2" d="M102.5,95.8c9.3-6.1,21.1,1.6,27.1,0c0,0,1.3,3.6,9.6,7.1c8.3,3.6,11.3,9.1,12.4,12.1c1.1,3,7.3,8.7,7.3,8.7
	s-1.4,5.3,0,12.3c1.4,7-0.7,14.9-0.7,14.9s1,1.9,2.1,2.7c0,0-3,1.1-6.7,0.7c0,0,1.9,1.3,3.1,3.4c0,0-0.8,5.2-5.2,10.1
	c-4.4,4.9-5.9,9.3-5.9,9.3s-5-0.4-10,2.6c-5,3-12.9,5.1-16.2,5.4c-3.3,0.2-5.4,2.3-5.4,2.3s-2.8-2.7-10.2-4
	c-7.4-1.3-16.8-5.4-20.5-8.8c-3.6-3.4-5.1-6.1-8.3-7.8c0,0,2.2-4.2,0-8.5c-2.2-4.3-2.2-10.7-2.2-10.7s-2.7-5-1.9-9.6
	c0.8-4.6,2.7-8.3,3-13c0.3-4.7,6-5.7,6-5.7s0.4-4.1,3.1-8.1c2.7-4.1,7.5-5.4,9.6-9.1c0,0,3.5-1.2,6.3-0.6c0,0-1.4-1.3-3.4-2.8
	C95.6,98.6,98.7,98.3,102.5,95.8z"/>
</svg>
