<?xml version="1.0" encoding="utf-8"?>
<!-- Generator: Adobe Illustrator 19.0.0, SVG Export Plug-In . SVG Version: 6.00 Build 0)  -->
<svg version="1.1" id="Layer_1" xmlns="http://www.w3.org/2000/svg" xmlns:xlink="http://www.w3.org/1999/xlink" x="0px" y="0px"
	 viewBox="0 0 265.4 246.1" style="enable-background:new 0 0 265.4 246.1;" xml:space="preserve">
<style type="text/css">
	.st0{fill:#374D97;}
	.st1{fill:#FFFFFF;}
	.st2{fill:#C11926;}
</style>
<path class="st0" d="M22.7,179.2c12.3-2,26.8-3.1,26.8-3.1s7.5,2.5,15.3,10.9c7.7,8.4,3.5,19.9,3.5,19.9s-4.7-2.4-8.2-2.9
	c0,0-0.1,6-3.6,12.7c-2.2,4.2-9.6,6.9-14.8,8.3c-3.1,0.9-5.4,1.3-5.4,1.3s22.8,2.6,33.4-0.3c0.3-0.1,0.6-0.2,0.9-0.3
	c3.3-1.1,6.8-2.1,9.9-3c6.6-1.8,11.9-3,11.9-3s-0.7,5.9,0,11.4c0.7,5.5,1.6,15,1.6,15s7.8-10.1,17.7-17.7c9.9-7.6,16.4-5.9,23.2-11
	c0,0,7.9,0.7,14.1,2.4c6.2,1.7,19.3-1.3,19.3-1.3s9-6.2,16.7-8.3c2.3-0.6,4.4-0.9,6.2-0.5c7.9,1.5,16,6.2,27.1,6
	c0,0-7.9-5.8-10.3-10.6c-2.5-4.7-0.8-12.1-0.8-12.1s6.9-4.2,15.7-6.6c2.8-0.8,5.9-1.4,8.9-1.6c2.1-0.1,4-0.5,5.9-1
	c9.4-2.6,15.7-8.9,15.7-8.9s-13.7-1.1-21.8-5.4c-8.1-4.3-4.7-16.1-4.7-16.1s4.5-8.4,9.4-11.4c0,0-0.9,0.2-2.4,0.6
	c-3.6,1-10.6,3.2-14.8,6.4c0,0,4.2-7.4,8.5-11.8c4.2-4.3,6-10.5,6-15.4c0.1-4.9-6.8-15.3-4.7-23.3c0,0-1.6-10.1,3.3-17.2
	c4.9-7.1,12.1-13,16.7-20.3c4.6-7.3,16.6-14.3,16.6-14.3s-5-2.4-12.8-0.2c-2.1,0.6-4.3,1.4-6.7,2.8c-6.1,3.3-11.7,5.3-15.7,6.4
	c-3.6,1-5.9,1.3-5.9,1.3s-3,1.4-4.5,5.5c0,0-1.5,0.7-3.8,1.3c-2.3,0.6-5.4,1.2-8.4,0.9c-6.2-0.6-12.3-10.6-24.2-15.3
	c-11.9-4.7-18.9-5.4-18.9-5.4s-9.4-1.1-14.2-5.8c0,0-12.7-8.8-16-16.7C131,13.5,130.1,0.9,119.8,0c0,0,3.2,21.1-3.6,36.7
	c-3.4,7.8-8.9,11-13.5,12.3c-4.6,1.3-8.4,0.6-8.4,0.6s-7.4,2-12.4,6.8c-5,4.8-18.2,10.5-18.2,10.5s-10,1-16.9-0.2
	c0,0,0.7,9.8,3.5,21c2.8,11.2-6.5,20.1-6.5,20.1s-6.7,3.6-12,9.3c-5.3,5.7-12.8,8.4-12.8,8.4s11.6,3.7,16.7,9.7
	c0,0-2.7,8.7-8.5,19.8c-5.8,11-17,16.1-17,16.1L0,180.6C0,180.6,10.4,181.2,22.7,179.2z"/>
<path class="st1" d="M51.2,154.4l1-0.1l4.1,1.4c2.1,0.7,13.4,4.8,24.4,16.8c7.2,7.8,10,17,10.3,25.5l26.4-5.9l-1.2,9.9
	c1.1-0.4,2.1-0.7,3.1-1c1.1-0.3,2.6-0.8,3-1l6.5-4.7l7.9,0.7c1,0.1,9.4,0.9,17.1,2.9c1.3,0,3.8-0.3,6.3-0.7c2.3-1.4,5.5-3.2,9-4.9
	l31.3-55.1c0.9-1.6,5.6-9.7,11.3-15.7c-0.1-0.3-0.2-0.7-0.3-0.9c-2.2-5.9-5.3-14.4-4.1-23.9c-0.2-2.9-0.2-7,0.6-11.5
	c-0.8,0-1.5-0.1-2.3-0.2c-9.6-0.9-16.1-6.3-21.3-10.7c-3-2.5-5.9-4.9-8.8-6.1c-7.4-2.9-12.1-3.8-13.1-3.9l-0.5,0l0.1,0
	c-3.7-0.4-16-2.4-25.1-10.4c-1.2-0.9-2.7-2-4.3-3.3c-5.7,9-14,15.3-24.1,18c-3.9,1.1-7.5,1.5-10.5,1.5c-0.5,0.2-0.9,0.5-1.1,0.7
	c-7,6.8-19.6,12.6-24.7,14.7L72,86.7c2.1,15.5-5.5,29.2-13.3,36.6l-2.3,2.2l-0.5,0.3l3.8,4.5l-3.5,11.2
	C56,142.2,54.4,147.3,51.2,154.4z"/>
<path class="st2" d="M165.4,101.5c0,0-0.9-10.5-12.2-12.4c-11.3-1.9-16.5,1.1-21.4-1.3c0,0-2.1,1.1-3.7,2.7
	c-1.7,1.6-9.4,0.7-16.1,5.2c-6.7,4.5-8.8,6.9-11.7,6.8c0,0,1.6,3.5-0.2,7c-1.8,3.5-2.9,10.8-2.4,14.9c0,0-2.5,1.4-3.8,2.8
	c0,0,3.4,2.5,3.4,6.3c0,3.8,3.4,9.1,3.4,9.1s2.4,3.8,3.2,8.8c0,0,3.1,1.1,7,6.4c3.9,5.3,8.7,5.7,15.5,6c6.9,0.3,16.3,3.3,16.3,3.3
	s12.4-3.2,17.9-7.7c5.5-4.5,12.3-11.4,15.2-19.8c2.9-8.4-0.3-16.1-0.3-22.1C175.8,111.4,170.4,104.6,165.4,101.5z"/>
</svg>
