<?xml version="1.0" encoding="utf-8"?>
<!-- Generator: Adobe Illustrator 19.0.0, SVG Export Plug-In . SVG Version: 6.00 Build 0)  -->
<svg version="1.1" id="Layer_1" xmlns="http://www.w3.org/2000/svg" xmlns:xlink="http://www.w3.org/1999/xlink" x="0px" y="0px"
	 viewBox="0 0 277 241.8" style="enable-background:new 0 0 277 241.8;" xml:space="preserve">
<style type="text/css">
	.st0{fill:#374D97;}
	.st1{fill:#FFFFFF;}
	.st2{fill:#C11926;}
</style>
<path class="st0" d="M253.7,135.4c-4.8-1.3-9.3-1.7-12.8-1.7c-4.5,0-7.5,0.6-7.5,0.6s-3.2-3.5-3-11.1c0.3-7.6-0.3-16-0.3-16
	s6.2-1.1,11.4-8.7c5.1-7.6,12.2-20.3,12.2-20.3s-4,1.1-10.1,1.1c-3.1,0-6.7-0.3-10.7-1.1c-11.9-2.4-21.9-11.1-21.9-11.1
	c-4.1-6.8-13.8-15.7-13.8-15.7S195,40.3,195.5,29c0.5-11.4,5.1-29,5.1-29S188.7,3.2,179,16.8c-9.7,13.5-21.9,19-21.9,19
	c-1.6,0.1-3.2,0.1-4.7,0.1c-11.8,0-18.4-1.9-18.4-1.9c-1.8,5.5-3.9,11.4-3.9,11.4c-5.1-7.5-7.3-24.6-7.3-24.6c-5.9,3.7-12,11-12,11
	c-8.1,0.6-19.7,3-19.7,3c-4.7-1.2-10.6-6.3-21.7-10.6c-6.3-2.4-12-2.9-15.6-2.9c-2.8,0-4.5,0.3-4.5,0.3s7.1,4.5,8.3,11.2
	c1.2,6.7,6.3,21.1,6.3,21.1c-0.3,0-0.6,0-1,0c-4,0-9.1-1-9.1-1c2.4,13.3,11.9,24.1,11.9,24.1s-12.5,7-19.2,15.2
	c-6.8,8.1-17.1,8.9-17.1,8.9c7.9,10.6,19.5,15.2,19.5,15.2c-3.2,16.5-1.6,29.2-1.6,29.2s-13.8,8.7-28.2,14.3
	C4.9,165.4,0,174.9,0,174.9s12.1,2.1,27.1,2.1c6.6,0,13.8-0.4,20.8-1.6c6.4-1.1,12.1-1.4,17-1.4c12.4,0,19.3,2.5,19.3,2.5
	s1.9,9.5,5.7,20.8c3.8,11.4,2.2,29.5,2.2,29.5s7.3-6,11.1-14.4c3.8-8.4,11.1-16.5,11.1-16.5s6.2,13,10.3,20.8s5.4,24.9,5.4,24.9
	c11.4-15.2,12.2-34.7,12.2-34.7c3.4-0.7,7.3-1,11-1c7.3,0,13.7,1,13.7,1s24.6,0,34.9-13.8c10.3-13.8,15.3-25.2,15.3-25.2
	c18-1.6,40.2-9.2,40.2-9.2c9.7-7.3,19.8-20.6,19.8-20.6S264.5,138.4,253.7,135.4z"/>
<path class="st1" d="M235.6,149.9c-2.4-0.8-4.9-1.2-7.6-1.4c-2.4-0.2-4.1,0-4.4,0l-6.5,1l-3.9-5.1c-1.3-1.6-5.6-7.8-4.5-18.4
	c0.6-6,0.6-12.9,0.6-13l0-10.3l9.7-1c0.4-0.2,1.8-0.8,3.3-2.7c0,0,0.1-0.1,0.1-0.1c-0.2,0-0.4-0.1-0.5-0.1
	c-12.9-3.5-22.7-12.9-23.8-14l-1.3-1.3l-0.8-1.6c-1.7-3.2-6.5-9-9.4-12l-2.6-2.7l-0.5-3.8c-0.1-0.4-1.1-9-0.5-18.7
	c-9,8.1-17.4,11.4-18.6,11.9l-2.1,0.8l-2.2-0.1c-1.5,0-3.1-0.1-4.6-0.2c-3.2-0.2-6-0.5-8.5-0.9c-0.2,0.6-0.4,0.9-0.4,0.9l-13.9,12.7
	l-6.6-11.3c-1.3-2.2-2.3-4.8-3.1-7.5l-3.1,0c-6.3,0.1-16,1.4-16.1,1.4l-2.7,0.4l-2.6-0.9c-3.3-1.1-6.1-3-9.1-4.9
	c-1.1-0.7-2.3-1.5-3.5-2.3c0.7,3.1,1.6,6.2,2.2,8.5L92.3,68l-7-0.1c0.5,0.8,0.9,1.4,1.3,1.9L95.3,81l-12.9,6.1
	c-2.7,1.3-10.5,5.6-14.5,9.8c-1,1.1-2,2-3.1,2.9c0.3,0.2,0.4,0.2,0.4,0.2l8.7,4.1l-2.5,9.3c-3.3,12.3-2.8,22-2.8,22.1l0.5,7.3
	l-6.5,3.5c-0.3,0.2-4.6,2.5-10.7,5.2c1-0.1,1.9-0.1,2.9-0.2c5.8-0.6,11.5-0.7,16.9-0.3c12.7,0.8,20,4,20.8,4.3l5.9,2.6l0.8,6.4
	c0,0.1,0.9,6.9,3,15.3c1.5-1.7,2.7-2.8,3-3.1l12.3-12l6.4,15.9c0,0.1,1.2,2.9,2.7,6.5l0.1-1.1l8.9-1.2c3.5-0.5,7.6-0.6,12.1-0.3
	c5.6,0.4,10.6,1.3,12.7,1.7c5.6,0.2,17.1-1.1,21.5-6.2c8.8-10.3,13.5-19.1,13.5-19.2l3.1-6l6.8-0.1
	C216.3,154.3,229.7,151.4,235.6,149.9z"/>
<path class="st2" d="M101.4,139.6c0,0-2,11.1,9.1,16.2c11.1,5.1,17.3,3.5,21.7,7.4c0,0,2.4-0.5,4.6-1.8c2.2-1.2,9.9,1.9,18-0.8
	c8.1-2.7,11-4.6,13.9-3.7c0,0-0.7-4.1,2.2-7.2c2.8-3.1,6.1-10.3,6.6-14.6c0,0,3-0.7,4.7-1.8c0,0-2.8-3.5-1.8-7.4
	c1.1-3.9-0.9-10.3-0.9-10.3s-1.4-4.6-0.8-10c0,0-2.8-2-5.4-8.6c-2.5-6.6-7.3-8.3-14.3-10.6c-7-2.2-15.8-8-15.8-8s-13.7-0.2-20.6,2.8
	c-6.9,3-15.9,8.2-21.3,16c-5.4,7.8-4.3,16.7-6,22.8C93.5,126.5,97.1,135,101.4,139.6z"/>
</svg>
