<?xml version="1.0" encoding="utf-8"?>
<!-- Generator: Adobe Illustrator 19.0.0, SVG Export Plug-In . SVG Version: 6.00 Build 0)  -->
<svg version="1.1" id="Layer_1" xmlns="http://www.w3.org/2000/svg" xmlns:xlink="http://www.w3.org/1999/xlink" x="0px" y="0px"
	 viewBox="0 0 271.4 245.3" style="enable-background:new 0 0 271.4 245.3;" xml:space="preserve">
<style type="text/css">
	.st0{fill:#374D97;}
	.st1{fill:#FFFFFF;}
	.st2{fill:#C11926;}
</style>
<path class="st0" d="M250.2,112c-11.9-2.1-25-2.4-25-2.4s0.6-12.5-3.9-22.1c-4.5-9.5-2.7-14.3-2.7-14.3c3.6-7.2,3.3-12.2,4.8-17.9
	c1.5-5.7,4.2-11.3,4.2-11.3C221,48.2,201,55.3,201,55.3s-7.5-12.2-20-19.4c-12.5-7.2-26.8-10.1-26.8-10.1
	c1.9-10.6,2.7-25.8,2.7-25.8C154,6.6,141,21.2,141,21.2s-3.3,0.1-13.1,2.4c-9.8,2.2-24.3,2.4-24.3,2.4S97.5,15.4,89,10.7
	C80.5,6.1,71.9,0,71.9,0C76,21,87.2,44.3,87.2,44.3S75.1,56.1,69.9,57.1c-5.2,1-13.1,3-13.1,3C52.9,66.8,48.8,78,48.8,78
	s-0.5,0-1.4,0c-2.5,0-8.3,0.2-16.7,1.4C19.2,81,0,83.8,0,83.8c11,6.1,21.3,9.7,21.3,9.7s-0.1,13.4,6,17c6.1,3.6,22.1,8.1,22.1,8.1
	s2.2,6.6-5.1,12.7c-7.3,6.1-21.6,15.4-21.6,15.4c10.4-2.1,23.3-6.1,23.3-6.1c4.5,16.4,11.5,23.6,11.5,23.6s-2.7,6.4-7.6,15.5
	c-4.9,9.1-20.9,25-20.9,25s12.1-3,20.6-7.5c8.5-4.5,14.9-10.4,21.8-12.7c6.9-2.2,14.3-2.2,14.3-2.2c-5.5,7.8-8.6,20-8.6,20
	c4.8-2.8,12.1-5.5,12.1-5.5c10.3,8.9,32.1,16.8,32.1,16.8s9.4-5.7,13.7-7c1.7-0.5,3.8-0.7,5.8-0.7c3.1,0,5.8,0.4,5.8,0.4
	s6.3,12.5,10.7,14.3c2.7,1.1,6,1.3,8.2,1.3c1.5,0,2.5-0.1,2.5-0.1c7.5,6.6,17,23.6,17,23.6s-0.3-16.7-2.4-24.8
	c-2.1-8.1-4.2-21.2-4.2-21.2c2.5,0.1,5.4,0.1,8.2,0.1c5.6,0,10.6-0.1,10.6-0.1s0.6-4.8,8.1-13.1c7.5-8.3,12.5-14.6,12.5-14.6
	s-4.8-6.3-2.4-13.1c2.4-6.9,3.3-22.4,3.3-22.4s16.1-10.4,24.2-13.4c8.1-3,28.6-4.2,28.6-4.2S262.1,114.1,250.2,112z"/>
<path class="st1" d="M193.9,128.8c0.5-1.8,1.9-8,1-12.4c-2.1-10.7,0.5-17,2.1-19.7l-8.6,0.8l-2.7-8.9c-0.2-0.5-2.9-8.5-8.7-14.1
	c-6.8-6.6-15.9-11-15.9-11.1l-10-4.9l0.3-0.6c-1.3-0.1-3.1-0.2-5.4-0.2c-9-0.2-20.5-2.9-21.8-3.2l-2-0.5l1.3,6.1l-7.1,4.1
	c-9.7,5.6-17.2,8.4-22.2,8.1c-1.5-0.1-3.4-0.1-5.1-0.2c-2.3,2.8-4.5,5.9-5.4,7.3l-4.8,6.9l-7.9-2.5c-0.1,0-0.3-0.1-0.6-0.2
	c-1.2-0.3-4.4-1-9.3-1.6l-0.1,0.4c-0.3,1.3-0.5,3.1-0.5,4.3c2.6,2,7.9,5.4,12,7.8l5.2,3l0.5,6c0.3,3.9-1,10.8-6.9,16.2l0,0.9
	c0.2,9.2,2.4,14.3,2.8,15.1l4.3,6.6l-5,5.9c0,0-0.1,0.1-0.1,0.2c6.1,0,11.4,1.3,12.1,1.5l21.5,5.4l-14.3,12.2
	c3.1,3.9,8.8,8.7,13.6,12.2c3.1-0.8,6.6-1.5,9.2-1.7c2.4-0.1,5.1,0.2,8.1,0.9c3.1,0.8,5.7,1.8,6,1.9l5.6,2.3l1.3,5.9
	c0.5,2.3,1.4,5.2,2.1,6.8c0.3,0.1,0.6,0.2,1,0.3c0.2-2.7,0.4-4.6,0.4-4.8l1.2-13.9l13.4,3.9c1.5,0.5,3.5,1,5.9,1.6
	c0.4,0.1,0.8,0.2,1.1,0.3c1.8-1.7,3.9-3.4,6.7-5.3c2.5-1.7,4.8-3.3,6.6-4.6c0.1-3.8,1-8,3.5-11.8c1.5-2.3,4.2-9.5,5.6-13.9l1.7-5.5
	l5.5-1.9c0.2-0.1,0.4-0.1,0.7-0.3l-1.2-0.3L193.9,128.8z"/>
<path class="st2" d="M127.4,153c-8.4-3.2-12.2-2.5-17.1-4.4c-4.9-1.9-5.2-5.6-5.2-5.6s-4-2.1-6.4-1.8c0,0,1.4-2.5,2.6-3.7
	c1.1-1.3-1.2-3.9-4.1-6.8c-2.9-2.9-2.3-11.5-2.3-11.5s-1.8-1.8-4.1-2.1c0,0,2.3-1.7,4.5-2.3c0,0-2-3.5-0.6-8.5
	c1.5-5,3.9-8.8,2.7-12.2c0,0,4.3-0.9,7.3-4.1c3-3.3,9.4-7.9,12.9-9.2c3.5-1.3,5.7-4.4,5.7-4.4s2.1,3.9,8.3,3.6
	c6.3-0.3,13.5,0,20.8,4c7.3,4,6.8,8.6,6.8,8.6s3.8,4.4,5.4,9.2c1.6,4.8,3.2,7.7,3.2,7.7s-1.4,5.4-0.3,12.8
	c1.2,7.4-4.6,14.2-8.8,18.6c-4.2,4.4-5,7.1-11.4,8.9C141.1,151.4,135.3,155.9,127.4,153z"/>
</svg>
