<?xml version="1.0" encoding="utf-8"?>
<!-- Generator: Adobe Illustrator 19.0.0, SVG Export Plug-In . SVG Version: 6.00 Build 0)  -->
<svg version="1.1" id="Layer_1" xmlns="http://www.w3.org/2000/svg" xmlns:xlink="http://www.w3.org/1999/xlink" x="0px" y="0px"
	 viewBox="0 0 261.9 244" style="enable-background:new 0 0 261.9 244;" xml:space="preserve">
<style type="text/css">
	.st0{fill:#374D97;}
	.st1{fill:#FFFFFF;}
	.st2{fill:#C11926;}
</style>
<path class="st0" d="M234.7,68.4C224.5,71.3,214.9,79,214.9,79s1.3-6.5,1.4-11.6c0,0-4.1,1.1-6.3,0.4c-2.2-0.7,5.6-12.6,5.6-12.6
	s4.3-9,4.2-13.5c0,0,4.5-6.5,5-9.7c0,0-8.7,6.4-17.8,10.9c-8.2,4-14.3,8.9-15.5,9.9c-0.1,0.1-0.2,0.2-0.2,0.2s-4.4,0.8-9.8-0.6
	c0,0-2-7-1.7-17c0.3-10-2-16-2-16s-6.5,7.2-10.8,12.3c-4.2,5.1-8.3,11.6-8.3,11.6s-3.7,1.8-9.2,2.2c0,0,2.8-5.1,7.2-19
	c4.4-13.9,1.8-20.1,1.8-20.1l0.3-6.4c0,0-2.8,7.5-11,18c-8.2,10.5-10.8,21.3-10.8,21.3s-3.9,5.1-8.5,8.9c-0.9,0.8-1.9,1.5-2.9,2.1
	c0,0-4.1-5.1-11.2-9.8c-7.1-4.6-11.9-4.4-11.9-4.4s1.3,5.1,0.1,11.2c-1.2,6.2-5.4,10.6-5.4,10.6s-3.2-4.7-8.1-7.6
	c-2-1.2-3.9-0.5-5.4,0.7c-2.1,1.8-3.5,4.6-3.5,4.6c0,0-1.2,1-4.8,0.8c0,0,2.4,8,0.5,12.5c-0.2,0.5-0.5,0.9-1,1.3
	c-3.5,2.9-13.8,1.2-20.1-3.3c-7.1-5-14.3-2.5-14.3-2.5s6.3,9.3,8.1,19.4C50.5,94,50,104.1,50,104.1s-3.6-2-5.6-4.6
	c0,0-0.4,8.2,1.9,16.1c0,0-17,6-27.1,4.6C9.1,118.8,0,121.6,0,121.6s17.9,5.4,27.7,11.5c9.8,6.1,20.3,6.3,20.3,6.3s-7.1,5.5-12,6.7
	c0,0,15.6-0.8,25.2-5.4c0,0,1.1,9.2-0.9,15.5c-2,6.3-6.2,24-6.2,24s0.6-0.5,1.5-1.3c2.7-2.2,8.6-6.7,13-7.5c6-1.1,9,6.5,9,6.5
	s8.4,11.5,15.9,15c7.5,3.5,12.1,11,13.5,14.2c1.3,3.2,3.8,4.8,3.8,4.8s1.3,8.1,1.4,14.1c0,0,8.2-1.4,13.9-4.3
	c5.8-2.9,11.8-4.2,15.2-1.5c3.4,2.7,7.9,18.6,13,23.7c0,0,5.9-6.5,7.9-12c0,0-0.1-7.6,5.3-14.8c1.5-2,3.5-4,5.7-5.7
	c5.6-4.6,11.9-7.9,11.9-7.9s10.4,5.8,14.5,12.8c0,0,2.5,6.9,2.2,12c0,0,2.2-2.8,3.5-6.3c0,0,6,8.9,9.5,21.1c0,0,0.7-14.2-2.5-26.9
	c-3.1-12.7-1.7-26.8-1.7-26.8s8.7-10.1,13.2-19.5c0.6-1.2,1.3-2.1,2.2-2.8c6.2-5.1,18.5-0.2,18.5-0.2s-2.2-9.5-6.1-16.3
	c-3.9-6.8-6.8-18.4-6.8-18.4s1.9-7.8,2.5-13.2c0.5-4.2,5.1-8.4,7.1-10c0.5-0.5,0.9-0.7,0.9-0.7s-1.7-1.1-3.2-1.5
	c0,0,5.5-2.7,11.5-7.3c0,0-9.8,1.6-16.3,0.6c-6.5-1-10.4-3.8-10.4-3.8s3.3-1.7,8.6-6c2.6-2.2,5.7-5,9.2-8.6
	c5.5-5.8,11-10.5,14.8-13.7c3.3-2.7,5.4-4.2,5.4-4.2S244.9,65.5,234.7,68.4z"/>
<path class="st1" d="M200.2,116.9l-15.9,13l3.3-16.5l-5.4-1.5l6.3-3l2.2-11.1l-6.7-4.7l8.4-3.9l1.8-8.8c-1.5-1.8-2.6-3.8-3.4-6
	c-0.1-0.4-0.3-0.8-0.4-1.2c-3.4,0.2-8.3,0-13.8-1.4l-11.3-2.8l-1.7-6.1c-3,1.1-7.4,2.2-12.7,2.6l-13.2,0.9c-0.5,0.4-1.1,0.7-1.6,1
	l-15.6,9.6l-6.2-8.3c-1.1,1.4-2,2.5-2.6,3.1L94.1,90.5l-4.2-6.8c-0.7,0.7-1.4,1.4-2.1,2c-5.1,4.2-11.5,5.9-17.9,5.9
	c0.5,7.2,0.2,12.6,0.2,13.5l-0.5,9.4l8.4-4l1.1,9.5l26.1,0.5L81.2,139c0.3,2.7,0.7,8.5,0,14.8c5.4,2.5,10.4,6.9,13.8,13.7
	c2.5,3.1,5.7,6.4,7.2,7.3c10.8,5.1,18.4,14.5,22.2,22l4.4,2.9c9.1-2,17.4-0.6,24,4c2.1-2.6,4.7-5.2,7.9-7.7
	c7-5.7,14.5-9.7,15.4-10.1l9.6-5l5.6,3.1l0.3-2.7l4.1-4.8c1.9-2.3,7.6-9.5,10.4-15.2c1.8-3.7,4.4-7,7.5-9.6c0.9-0.8,1.9-1.4,2.8-2
	c-2.1-5.8-3.5-11.1-3.9-12.5l-1.2-4.7l1.1-4.7c0.4-1.7,1-4.5,1.5-7L200.2,116.9z"/>
<path class="st2" d="M111.9,102.5c2.9-9.4,15.2-10.7,18.4-15.1c0,0,2.9,1.7,10.5-0.5c7.6-2.2,12.7-0.1,15.2,1.3
	c2.4,1.4,9.8,1.9,9.8,1.9s2,4.4,6.8,8.3c4.9,4,7.8,10.5,7.8,10.5s1.7,0.7,3,0.7c0,0-1.4,2.4-4.2,4.2c0,0,2-0.2,4,0.6
	c0,0,2.4,4,2.1,9.7c-0.3,5.8,1.2,9.6,1.2,9.6s-3.6,2.5-5.4,7.4c-1.7,4.8-5.9,10.6-8,12.6c-2.1,2-2.4,4.5-2.4,4.5s-3.4-0.3-9.1,3
	c-5.7,3.2-14.4,5.7-18.8,5.4c-4.4-0.3-6.9-1.3-9.9-0.7c0,0-0.8-4.1-4.7-5.7c-3.9-1.7-7.5-6-7.5-6s-4.6-1.9-6.7-5.5
	c-2.1-3.5-2.8-7.1-5.2-10.5c-2.4-3.4,0.9-7.2,0.9-7.2s-2-3-2.4-7.3c-0.5-4.3,2.1-7.8,1.5-11.5c0,0,1.7-2.8,3.9-4c0,0-1.7-0.1-3.9,0
	C108.8,108.2,110.7,106.2,111.9,102.5z"/>
</svg>
