<?xml version="1.0" encoding="utf-8"?>
<!-- Generator: Adobe Illustrator 19.0.0, SVG Export Plug-In . SVG Version: 6.00 Build 0)  -->
<svg version="1.1" id="Layer_1" xmlns="http://www.w3.org/2000/svg" xmlns:xlink="http://www.w3.org/1999/xlink" x="0px" y="0px"
	 viewBox="-295 296.2 408.8 408.8" style="enable-background:new -295 296.2 408.8 408.8;" xml:space="preserve">
<style type="text/css">
	.st0{fill:#FFFFFF;stroke:#000000;stroke-miterlimit:10;}
	.st1{fill:#475993;}
</style>
<rect x="-165" y="344.2" class="st0" width="211" height="360.8"/>
<path class="st1" d="M58.7,296.2h-298.6c-30.4,0-55.1,24.7-55.1,55.1v298.6c0,30.4,24.7,55.1,55.1,55.1h147.3l0.3-146.1h-38
	c-4.9,0-8.9-4-9-8.9l-0.2-47.1c0-5,4-9,9-9h37.9v-45.5c0-52.8,32.2-81.5,79.3-81.5h38.6c4.9,0,9,4,9,9v39.7c0,4.9-4,9-9,9l-23.7,0
	c-25.6,0-30.6,12.2-30.6,30v39.4h56.3c5.4,0,9.5,4.7,8.9,10L30.7,551c-0.5,4.5-4.4,7.9-8.9,7.9h-50.5L-28.9,705h87.6
	c30.4,0,55.1-24.7,55.1-55.1V351.3C113.8,320.9,89.1,296.2,58.7,296.2z"/>
</svg>
